<?xml version="1.0" encoding="UTF-8"?>
<svg version="1.1" xmlns="http://www.w3.org/2000/svg" width="1300" height="1300">
<path d="M0 0 C429 0 858 0 1300 0 C1300 429 1300 858 1300 1300 C871 1300 442 1300 0 1300 C0 871 0 442 0 0 Z " fill="#FEFEFE" transform="translate(0,0)"/>
<path d="M0 0 C1 3 1 3 0 6 C-0.63968367 19.68249093 -0.63968367 19.68249093 2 33 C2.34160156 34.07507813 2.68320312 35.15015625 3.03515625 36.2578125 C8.76653126 53.32293553 18.44717895 67.51360094 30.69921875 80.546875 C32.70807389 82.68874432 34.61130093 84.87802312 36.5 87.125 C40.60857975 91.84938562 45.30614112 95.87251926 50 100 C51.58343595 101.45822191 53.16676895 102.91655563 54.75 104.375 C59.23480173 108.41694514 63.91719544 112.14301634 68.68432617 115.84106445 C72.54590262 118.84033191 76.32359455 121.91134851 80.0625 125.0625 C85.71442202 129.80741597 91.52126176 134.31131338 97.39404297 138.77636719 C99.93800289 140.71469603 102.46790857 142.67120558 105 144.625 C109.81375553 148.33317542 114.64661746 152.01584684 119.48364258 155.69360352 C134.30166363 166.96332734 149.03607438 178.31185511 163.4453125 190.1015625 C166.397421 192.51607157 169.37968215 194.88920431 172.375 197.25 C176.61777855 200.63140908 180.64724702 204.21265145 184.65234375 207.87109375 C186.63258804 209.66682277 188.6456535 211.40067606 190.6875 213.125 C202.01251502 223.05158199 212.07832201 233.88249705 221 246 C221.96486328 247.28970703 221.96486328 247.28970703 222.94921875 248.60546875 C251.81995178 288.37571448 258.98109612 339.12725773 252 387 C249.8503306 400.53418549 247.33617812 413.97860673 242.73632812 426.91650391 C241.90717617 429.26265204 241.11915882 431.62120591 240.328125 433.98046875 C236.76609008 444.38145965 232.61128549 454.38972852 227.875 464.3125 C227.38443115 465.34366943 226.8938623 466.37483887 226.38842773 467.43725586 C223.35710272 473.6475403 219.94590938 479.33523367 216 485 C215.16475282 486.26656334 214.33380671 487.53597672 213.5078125 488.80859375 C208.67615946 496.18447942 203.64905561 503.21619959 198 510 C197.30648438 510.91523437 196.61296875 511.83046875 195.8984375 512.7734375 C194.95871094 513.87558594 194.95871094 513.87558594 194 515 C193.34 515 192.68 515 192 515 C191.773125 515.721875 191.54625 516.44375 191.3125 517.1875 C189.73664872 520.56432417 187.79123384 522.55767039 185 525 C184.34 525 183.68 525 183 525 C182.67 525.99 182.34 526.98 182 528 C181.34 528 180.68 528 180 528 C180.12568359 526.74123047 180.12568359 526.74123047 180.25390625 525.45703125 C180.9213848 517.57402511 181.03552406 509.84380394 180.6875 501.9375 C180.65277588 501.04587158 180.61805176 500.15424316 180.58227539 499.2355957 C180.3362674 494.45942965 179.7113996 490.50731251 178 486 C177.40484902 483.71137395 176.82235325 481.41943362 176.25 479.125 C167.68365435 446.55919326 149.13667153 419.02825811 126 395 C125.24734863 394.21447754 125.24734863 394.21447754 124.47949219 393.41308594 C118.54486264 387.24946747 112.46080739 381.5200161 105.75 376.19140625 C102.94587454 373.95686877 100.22624417 371.64116689 97.5 369.3125 C82.47844609 356.77834441 66.1568729 345.78525259 50.125 334.59765625 C34.51893313 323.70365376 18.97394723 312.7550579 4 301 C3.16597656 300.34902344 2.33195313 299.69804688 1.47265625 299.02734375 C-1.0401762 297.04395736 -3.52285591 295.02776713 -6 293 C-6.95261719 292.23429687 -7.90523437 291.46859375 -8.88671875 290.6796875 C-26.76006961 276.03062492 -43.94968649 259.10761006 -57 240 C-57.41733398 239.40074707 -57.83466797 238.80149414 -58.26464844 238.18408203 C-64.4372638 229.2639899 -69.48080081 219.8527346 -74 210 C-74.27972656 209.39075684 -74.55945313 208.78151367 -74.84765625 208.15380859 C-78.24860917 200.58997429 -80.70865636 192.95679256 -82.75 184.9375 C-82.94875732 184.15922852 -83.14751465 183.38095703 -83.35229492 182.57910156 C-86.35796759 170.10291891 -87.3510245 157.79849985 -87.31567383 145.01464844 C-87.31251235 142.63429935 -87.3360851 140.25519699 -87.36132812 137.875 C-87.5244018 98.10582597 -69.62442251 60.84312438 -43 32 C-42.24203125 31.17113281 -41.4840625 30.34226563 -40.703125 29.48828125 C-29.07758005 17.33237385 -14.55854691 8.21912901 0 0 Z " fill="#03909D" transform="translate(538,225)"/>
<path d="M0 0 C5.48385604 5.30695746 10.56793733 11.00734535 15.54101562 16.79272461 C20.07528339 22.05125185 24.83826664 27.03099467 29.75 31.9375 C30.54494873 32.73164307 31.33989746 33.52578613 32.15893555 34.34399414 C37.04362234 39.17799032 41.97084956 43.72015155 47.390625 47.94921875 C49.81417597 49.85395567 52.14369523 51.84131358 54.46704102 53.86621094 C62.88724104 61.16930103 71.88635343 67.59722129 81 74 C81.91168945 74.64163086 82.82337891 75.28326172 83.76269531 75.94433594 C93.61952311 82.86993968 103.51754133 89.72470942 113.5625 96.375 C121.16920278 101.41491105 128.65804027 106.58088801 136 112 C137.01924561 112.75216797 137.01924561 112.75216797 138.05908203 113.51953125 C146.51238459 119.79225948 154.64012367 126.22132918 162.296875 133.44921875 C164.87700571 135.88393747 167.51901652 138.22553057 170.1875 140.5625 C181.89541849 151.11454119 191.66617264 163.82240995 200.4375 176.875 C200.83831787 177.46885498 201.23913574 178.06270996 201.65209961 178.67456055 C221.87383797 209.36362051 222.50918523 249.2617562 215.61181641 284.18994141 C214.20812705 290.63705413 212.27376357 296.80663817 210 303 C209.71979004 303.81082031 209.43958008 304.62164063 209.15087891 305.45703125 C206.65783545 312.57054921 203.65610644 319.34235512 200.375 326.125 C199.84720947 327.2173999 199.31941895 328.3097998 198.77563477 329.43530273 C189.71642116 347.95566528 178.57290181 364.78605825 166.125 381.1875 C165.58963623 381.89455078 165.05427246 382.60160156 164.50268555 383.33007812 C161.55118155 387.1685602 158.51093207 390.66396676 155 394 C155.52672735 390.57627225 156.18568404 387.23763821 157.01953125 383.87890625 C158.10447914 379.01000461 158.34670245 374.3514565 158.3125 369.375 C158.30404053 368.06196899 158.30404053 368.06196899 158.29541016 366.72241211 C158.15091194 358.89447147 156.98774536 351.57057734 155 344 C154.70198486 342.80721436 154.70198486 342.80721436 154.39794922 341.59033203 C148.48331883 318.12231918 138.75272284 299.52544991 122 282 C121.42507813 281.36191406 120.85015625 280.72382812 120.2578125 280.06640625 C110.19945869 269.31514362 97.19337963 261.12638607 85.37866211 252.44506836 C50.49009752 226.77435165 20.34030919 201.20032322 4 160 C3.54729736 158.86208008 3.54729736 158.86208008 3.08544922 157.70117188 C-1.13456475 146.96895425 -4.57371809 136.2737471 -7 125 C-7.14421387 124.33371582 -7.28842773 123.66743164 -7.43701172 122.98095703 C-14.45603244 90.00182369 -13.60889345 52.77321491 -6 20 C-5.76522949 18.98631348 -5.53045898 17.97262695 -5.28857422 16.92822266 C-1.65974265 1.65974265 -1.65974265 1.65974265 0 0 Z " fill="#F68D28" transform="translate(476,486)"/>
<path d="M0 0 C1.21831512 -0.01268417 2.43663025 -0.02536835 3.69186401 -0.03843689 C5.00027252 -0.03550125 6.30868103 -0.03256561 7.65673828 -0.02954102 C9.02288064 -0.03410649 10.38902071 -0.03941315 11.75515747 -0.04542542 C14.61486148 -0.05434537 17.47428608 -0.0519473 20.33398438 -0.04199219 C23.98462297 -0.0305173 27.63429211 -0.05069534 31.28480339 -0.07990932 C34.10570323 -0.09832851 36.92637333 -0.0979674 39.74731827 -0.0922718 C41.74302548 -0.09204541 43.73871127 -0.10889571 45.73434448 -0.12608337 C52.59036196 -0.07356423 57.42894862 -0.00204096 62.85205078 4.40405273 C65.93232351 8.48948922 66.21920367 11.52261876 66.19262695 16.58105469 C66.19328407 17.63553551 66.19328407 17.63553551 66.19395447 18.71131897 C66.19187379 21.02194538 66.16857793 23.33183522 66.14501953 25.64233398 C66.13942099 27.24944157 66.13515211 28.85655428 66.13215637 30.46366882 C66.12072789 34.68387098 66.09127812 38.90376107 66.05804443 43.12384033 C66.02730035 47.4339984 66.01364178 51.74420713 65.99853516 56.05444336 C65.9664063 64.50445601 65.91523437 72.9542155 65.85205078 81.40405273 C62.88205078 81.40405273 59.91205078 81.40405273 56.85205078 81.40405273 C56.85205078 71.83405273 56.85205078 62.26405273 56.85205078 52.40405273 C36.06205078 52.40405273 15.27205078 52.40405273 -6.14794922 52.40405273 C-6.14794922 61.97405273 -6.14794922 71.54405273 -6.14794922 81.40405273 C-9.11794922 81.40405273 -12.08794922 81.40405273 -15.14794922 81.40405273 C-15.2407413 72.12011037 -15.31176066 62.83632832 -15.35519791 53.55202293 C-15.37604856 49.24065107 -15.40431964 44.92959712 -15.44970703 40.6184082 C-15.49325549 36.45571403 -15.5171053 32.29332512 -15.52745819 28.13042068 C-15.53483348 26.54441143 -15.54923592 24.95841837 -15.57086945 23.37253952 C-15.60002452 21.14618944 -15.60390039 18.92109118 -15.60205078 16.69458008 C-15.61093323 15.42883148 -15.61981567 14.16308289 -15.62896729 12.85897827 C-14.91411668 7.72454406 -12.83735983 4.72497739 -8.78219604 1.55430603 C-5.66958147 0.19517175 -3.39294813 0.01714546 0 0 Z " fill="#033A6E" transform="translate(721.14794921875,911.595947265625)"/>
<path d="M0 0 C11.75625 -0.0825 23.5125 -0.165 35.625 -0.25 C41.18142334 -0.30462402 41.18142334 -0.30462402 46.85009766 -0.36035156 C51.39331055 -0.37841797 51.39331055 -0.37841797 53.52401733 -0.3817749 C55.00380267 -0.38789451 56.48356876 -0.40191593 57.96322632 -0.42230225 C60.21232442 -0.45172544 62.46020999 -0.45561956 64.70947266 -0.45410156 C66.60809555 -0.46742523 66.60809555 -0.46742523 68.54507446 -0.48101807 C73.39119551 0.19369163 76.36085835 2.43674454 79.84570312 5.76025391 C81.53504721 9.03818171 81.46774975 12.2299903 81.46875 15.8359375 C81.48017029 16.97139511 81.48017029 16.97139511 81.49182129 18.12979126 C81.50260685 19.72842112 81.50548164 21.32712135 81.50097656 22.92578125 C81.50000575 25.36058364 81.54160501 27.79221621 81.5859375 30.2265625 C81.59114628 31.78384763 81.59383266 33.34114366 81.59375 34.8984375 C81.61014526 35.62050385 81.62654053 36.34257019 81.64343262 37.08651733 C81.56556327 42.83848362 79.93417409 45.11293743 76 49 C72.47382356 51.35078429 71.04835119 51.24370599 66.8762207 51.22705078 C65.61513992 51.22689972 64.35405914 51.22674866 63.05476379 51.22659302 C61.67843468 51.21637976 60.30210717 51.20594777 58.92578125 51.1953125 C57.51759542 51.19158172 56.109407 51.18873506 54.70121765 51.18673706 C50.9972719 51.17910564 47.29348332 51.15946148 43.58959961 51.1373291 C39.80910405 51.11686003 36.02858231 51.10762348 32.24804688 51.09765625 C24.83189249 51.0772766 17.41616957 51.03812941 10 51 C10 60.9 10 70.8 10 81 C6.7 81 3.4 81 0 81 C0 54.27 0 27.54 0 0 Z " fill="#0C4073" transform="translate(615,912)"/>
<path d="M0 0 C1.24156357 -0.01260864 2.48312714 -0.02521729 3.76231384 -0.03820801 C5.10920786 -0.03104712 6.45609668 -0.02284287 7.80297852 -0.01367188 C9.19393688 -0.01636898 10.5848934 -0.02025322 11.97584534 -0.02526855 C14.88691205 -0.03115545 17.79748674 -0.02262897 20.70849609 -0.00390625 C24.42876925 0.01886263 28.14788672 0.00576981 31.86811733 -0.01819611 C34.73961492 -0.03269479 37.61084145 -0.02802936 40.48234749 -0.01768494 C41.8533956 -0.01502773 43.2244688 -0.01825189 44.59548759 -0.02760315 C55.42221209 -0.08524102 55.42221209 -0.08524102 60.38134766 2.17578125 C66.29840032 8.03964829 67.20632666 12.02625496 67.24887085 20.21705627 C67.23449982 21.48283005 67.22012878 22.74860382 67.20532227 24.05273438 C67.20440582 25.36414902 67.20348938 26.67556366 67.20254517 28.02671814 C67.19942692 30.79480375 67.18293696 33.56236783 67.15600586 36.33032227 C67.12199372 39.86992655 67.11437885 43.40895995 67.11589622 46.94870853 C67.11522029 50.33762629 67.09753691 53.72635863 67.08032227 57.11523438 C67.07809662 58.38303238 67.07587097 59.65083038 67.07357788 60.95704651 C67.06081818 62.13854782 67.04805847 63.32004913 67.03491211 64.53735352 C67.02347672 66.09239342 67.02347672 66.09239342 67.0118103 67.67884827 C66.45941215 73.54257068 64.12253734 76.67334659 59.74438477 80.51757812 C56.50968396 81.59581173 54.11921874 81.66396708 50.71582031 81.69458008 C49.47410568 81.70741531 48.23239105 81.72025055 46.95304871 81.73347473 C45.59573771 81.74164268 44.23842219 81.74908631 42.88110352 81.75585938 C42.19629221 81.7599349 41.5114809 81.76401043 40.80591774 81.76820946 C37.18099903 81.78905064 33.55611796 81.80336059 29.93115234 81.81274414 C26.19525801 81.82380309 22.45996019 81.85820163 18.72427654 81.89791584 C15.84427312 81.92411335 12.96441118 81.9324387 10.08429909 81.93602562 C8.70762924 81.94088376 7.33096539 81.95247585 5.95441246 81.97106361 C-6.14686402 82.12430884 -6.14686402 82.12430884 -9.95947266 79.8034668 C-14.19265123 75.58919237 -15.6295785 72.32501894 -15.65966797 66.35375977 C-15.67235214 65.13221695 -15.68503632 63.91067413 -15.69810486 62.65211487 C-15.69516922 61.34056931 -15.69223358 60.02902374 -15.68920898 58.67773438 C-15.69377397 57.30919639 -15.69908049 55.94066069 -15.70509338 54.5721283 C-15.71401238 51.70822824 -15.71161565 48.84460722 -15.70166016 45.98071289 C-15.69017435 42.32100921 -15.71038057 38.66227101 -15.73957729 35.00269413 C-15.7579751 32.17754558 -15.75763979 29.35262686 -15.75193977 26.5274334 C-15.75171299 24.52558652 -15.76857875 22.52376114 -15.78575134 20.52198792 C-15.69861324 9.14599819 -15.69861324 9.14599819 -11.25561523 4.51757812 C-7.46040026 0.95062336 -5.19544664 0.01516884 0 0 Z M-5.25561523 11.51757812 C-5.56261751 14.09248485 -5.56261751 14.09248485 -5.5144043 17.12890625 C-5.52070862 18.30352417 -5.52701294 19.47814209 -5.5335083 20.68835449 C-5.52945984 21.96231079 -5.52541138 23.23626709 -5.52124023 24.54882812 C-5.52315369 25.85082153 -5.52506714 27.15281494 -5.52703857 28.4942627 C-5.52998914 31.25159441 -5.52569447 34.00879661 -5.51635742 36.76611328 C-5.50496277 40.30384886 -5.51152262 43.84128099 -5.52350235 47.37900543 C-5.53245917 50.74813746 -5.52619163 54.11718746 -5.52124023 57.48632812 C-5.5252887 58.76028442 -5.52933716 60.03424072 -5.5335083 61.34680176 C-5.52720398 62.52141968 -5.52089966 63.6960376 -5.5144043 64.90625 C-5.51281311 65.94390503 -5.51122192 66.98156006 -5.50958252 68.05065918 C-5.49960545 70.69423845 -5.49960545 70.69423845 -3.25561523 72.51757812 C-0.76921498 72.82435582 -0.76921498 72.82435582 2.15625 72.77636719 C3.28759872 72.78267151 4.41894745 72.78897583 5.58457947 72.79547119 C7.425187 72.7893985 7.425187 72.7893985 9.30297852 72.78320312 C11.18582298 72.7860733 11.18582298 72.7860733 13.10670471 72.78900146 C15.76577438 72.79036471 18.42447848 72.78765777 21.08349609 72.77832031 C24.49110093 72.76693724 27.89839034 72.77347802 31.30598354 72.78546524 C34.55499316 72.79443403 37.80396478 72.7881521 41.05297852 72.78320312 C42.27802597 72.78725159 43.50307343 72.79130005 44.76524353 72.79547119 C46.46699486 72.78601471 46.46699486 72.78601471 48.203125 72.77636719 C49.20302963 72.774776 50.20293427 72.77318481 51.23313904 72.77154541 C53.99223684 72.69046276 53.99223684 72.69046276 56.74438477 70.51757812 C57.20435955 67.94875418 57.20435955 67.94875418 57.13256836 64.90625 C57.14202484 63.73163208 57.15148132 62.55701416 57.16122437 61.34680176 C57.15515167 60.07284546 57.14907898 58.79888916 57.14282227 57.48632812 C57.14712753 55.53333801 57.14712753 55.53333801 57.15151978 53.54089355 C57.15594573 50.78350162 57.14950384 48.02640106 57.13549805 45.26904297 C57.11840543 41.73117634 57.12824524 38.19399239 57.14621544 34.65615082 C57.1596508 31.28698821 57.15024946 27.91801015 57.14282227 24.54882812 C57.14889496 23.27487183 57.15496765 22.00091553 57.16122437 20.68835449 C57.15176788 19.51373657 57.1423114 18.33911865 57.13256836 17.12890625 C57.12898819 15.57242371 57.12898819 15.57242371 57.12533569 13.98449707 C56.99962189 13.17041382 56.87390808 12.35633057 56.74438477 11.51757812 C53.35317235 9.25676985 52.17865381 9.26511547 48.203125 9.25878906 C47.06862411 9.25248474 45.93412323 9.24618042 44.76524353 9.23968506 C43.54019608 9.24373352 42.31514862 9.24778198 41.05297852 9.25195312 C39.79679214 9.25003967 38.54060577 9.24812622 37.24635315 9.24615479 C34.58906308 9.2447928 31.93214005 9.24748832 29.27490234 9.25683594 C25.86610703 9.26824204 22.45762626 9.26166136 19.04884243 9.24969101 C15.80020974 9.24073562 12.5516153 9.24700095 9.30297852 9.25195312 C8.07590683 9.24790466 6.84883514 9.2438562 5.58457947 9.23968506 C4.45323074 9.24598938 3.32188202 9.2522937 2.15625 9.25878906 C0.65758644 9.26117584 0.65758644 9.26117584 -0.87135315 9.26361084 C-3.44179044 9.28493127 -3.44179044 9.28493127 -5.25561523 11.51757812 Z " fill="#093E71" transform="translate(432.255615234375,911.482421875)"/>
<path d="M0 0 C13 0 13 0 16.578125 2.67578125 C17.50925227 3.85719553 18.39946817 5.07180128 19.25 6.3125 C19.73976318 6.9511499 20.22952637 7.5897998 20.73413086 8.24780273 C21.72336684 9.54047543 22.69701353 10.84524427 23.65380859 12.16210938 C25.52284046 14.71380903 27.53875591 17.13256926 29.5625 19.5625 C30.26375 20.42617188 30.965 21.28984375 31.6875 22.1796875 C36.05765205 27.50950132 40.53456492 32.7499838 45 38 C49.15385494 36.44109407 51.46924453 33.40283901 54.1875 30.0625 C54.91151001 29.18960327 54.91151001 29.18960327 55.65014648 28.29907227 C57.10736919 26.53855144 58.55479952 24.77039583 60 23 C60.78117188 22.04867187 61.56234375 21.09734375 62.3671875 20.1171875 C63.09164062 19.23289062 63.81609375 18.34859375 64.5625 17.4375 C65.29082031 16.56351563 66.01914062 15.68953125 66.76953125 14.7890625 C68.38572157 12.76811698 69.86416949 10.77446349 71.32421875 8.6484375 C71.72890381 8.0922876 72.13358887 7.5361377 72.55053711 6.96313477 C73.68082758 5.40769128 74.77153658 3.82370503 75.859375 2.23828125 C79 0 79 0 92 0 C92 26.73 92 53.46 92 81 C89.03 81 86.06 81 83 81 C82.67 58.23 82.34 35.46 82 12 C79.36 15.3 76.72 18.6 74 22 C72.07468926 24.28397147 70.14404619 26.55612743 68.1875 28.8125 C67.1598201 30.00491871 66.1324849 31.19763456 65.10546875 32.390625 C64.59290527 32.98552734 64.0803418 33.58042969 63.55224609 34.19335938 C61.0217034 37.13862769 58.50918893 40.09903559 56 43.0625 C55.55551514 43.58626221 55.11103027 44.11002441 54.65307617 44.6496582 C52.04984548 47.72629398 49.50345367 50.84170776 47 54 C42.89607511 52.4479356 40.62160115 49.49657332 37.9375 46.1875 C36.95985414 45.00632935 35.98198316 43.82534499 35.00390625 42.64453125 C34.50648926 42.03947754 34.00907227 41.43442383 33.49658203 40.81103516 C31.60435073 38.5212192 29.68171869 36.25836411 27.75585938 33.99682617 C13.50998099 17.26497148 13.50998099 17.26497148 10 12 C9.67 34.77 9.34 57.54 9 81 C6.03 81 3.06 81 0 81 C0 54.27 0 27.54 0 0 Z " fill="#02396D" transform="translate(511,912)"/>
<path d="M0 0 C14 0 14 0 17.67578125 2.67578125 C19.0390625 4.41796875 19.0390625 4.41796875 20.3125 6.3125 C21.04146484 7.2715625 21.04146484 7.2715625 21.78515625 8.25 C22.76552985 9.54254519 23.72908456 10.84804183 24.67431641 12.16650391 C26.50804198 14.70265106 28.49802653 17.09547531 30.5 19.5 C31.2115625 20.3765625 31.923125 21.253125 32.65625 22.15625 C35.39302049 25.47686486 38.1910295 28.74046782 41 32 C45.29189272 36.98031661 49.49041946 42.02298955 53.6328125 47.12890625 C57.00261348 51.2160411 60.46003399 55.22625624 63.92773438 59.23046875 C64.41306641 59.7925 64.89839844 60.35453125 65.3984375 60.93359375 C65.82817871 61.42915771 66.25791992 61.92472168 66.70068359 62.43530273 C68.19816061 64.23863423 69.59358644 66.12478193 71 68 C71.33 45.56 71.66 23.12 72 0 C75.3 0 78.6 0 82 0 C82 26.73 82 53.46 82 81 C69 81 69 81 65.640625 78.76171875 C64.45726562 77.23998047 64.45726562 77.23998047 63.25 75.6875 C62.80648193 75.14206543 62.36296387 74.59663086 61.90600586 74.03466797 C60.56956011 72.380568 59.28622274 70.69324886 58 69 C56.52543451 67.20454461 55.04646966 65.41269056 53.5625 63.625 C52.84191406 62.73039063 52.12132812 61.83578125 51.37890625 60.9140625 C48.64094958 57.56017798 45.82783535 54.2780711 43 51 C39.44524127 46.87552198 35.93207058 42.72791303 32.5 38.5 C28.50067853 33.57382849 24.39082883 28.75072407 20.24804688 23.9453125 C19.76916016 23.38972656 19.29027344 22.83414063 18.796875 22.26171875 C18.37760742 21.77662842 17.95833984 21.29153809 17.52636719 20.79174805 C15.32933226 18.21272704 13.16892281 15.60270737 11 13 C10.67 35.44 10.34 57.88 10 81 C6.7 81 3.4 81 0 81 C0 54.27 0 27.54 0 0 Z " fill="#093F72" transform="translate(799,912)"/>
<path d="M0 0 C0.71353638 -0.00241196 1.42707275 -0.00482391 2.16223145 -0.00730896 C3.66501444 -0.0063331 5.16783454 0.0069986 6.67041016 0.03198242 C8.96251287 0.06631283 11.25075972 0.05262863 13.54296875 0.03320312 C15.00782881 0.04010207 16.47267897 0.04977492 17.9375 0.0625 C18.61784302 0.05754013 19.29818604 0.05258026 19.99914551 0.04747009 C24.72948346 0.16376139 27.13762226 1.3012776 30.46875 4.62890625 C31.64763935 6.98668495 31.61388483 8.44530191 31.64575195 11.07519531 C31.66500481 12.45738251 31.66500481 12.45738251 31.68464661 13.86749268 C31.69203354 14.86641541 31.69942047 15.86533813 31.70703125 16.89453125 C31.715103 17.92068542 31.72317474 18.9468396 31.73149109 20.00408936 C31.74533889 22.17962959 31.75605792 24.35519161 31.76391602 26.53076172 C31.78110893 29.85165867 31.82498722 33.1715551 31.86914062 36.4921875 C31.87926919 38.60546143 31.88778478 40.71874382 31.89453125 42.83203125 C31.91203934 43.82285706 31.92954742 44.81368286 31.94758606 45.83453369 C31.92915562 51.71895149 31.48015204 55.19646789 27.46875 59.62890625 C23.99092417 60.78818153 21.28071743 60.74203691 17.61328125 60.7265625 C16.62082649 60.72444008 16.62082649 60.72444008 15.60832214 60.72227478 C13.49925172 60.71668621 11.39028823 60.7041359 9.28125 60.69140625 C7.84961091 60.68638977 6.41797015 60.68182712 4.98632812 60.67773438 C1.48043412 60.66672055 -2.0253975 60.6494638 -5.53125 60.62890625 C-5.53125 58.31890625 -5.53125 56.00890625 -5.53125 53.62890625 C4.36875 53.62890625 14.26875 53.62890625 24.46875 53.62890625 C24.46875 50.32890625 24.46875 47.02890625 24.46875 43.62890625 C23.52555908 43.65509033 22.58236816 43.68127441 21.6105957 43.70825195 C18.09741855 43.79367547 14.58535092 43.85624923 11.0715332 43.90356445 C9.55345199 43.92864734 8.03549082 43.96272285 6.51782227 44.00610352 C4.33059035 44.06703918 2.14495961 44.0951752 -0.04296875 44.1171875 C-1.35740967 44.14337158 -2.67185059 44.16955566 -4.02612305 44.1965332 C-7.53125 43.62890625 -7.53125 43.62890625 -10.45776367 41.5690918 C-12.96672967 38.01139987 -13.25792372 35.30637609 -13.1953125 31.09765625 C-13.20009613 30.38411987 -13.20487976 29.6705835 -13.20980835 28.9354248 C-13.2131981 27.43267603 -13.20406008 25.92985259 -13.18310547 24.42724609 C-13.15631783 22.1347115 -13.18287531 19.84707091 -13.21484375 17.5546875 C-13.21153948 16.08983301 -13.20513286 14.62498155 -13.1953125 13.16015625 C-13.20543365 12.47981323 -13.21555481 11.79947021 -13.22598267 11.09851074 C-13.13765256 7.48832107 -12.55745944 5.66600796 -10.46044922 2.69750977 C-6.90387815 0.1858556 -4.20654331 -0.08197517 0 0 Z " fill="#FBB349" transform="translate(806.53125,1014.37109375)"/>
<path d="M0 0 C1.13127319 -0.00945648 2.26254639 -0.01891296 3.42810059 -0.02865601 C5.26096619 -0.01954697 5.26096619 -0.01954697 7.13085938 -0.01025391 C8.38467407 -0.01312408 9.63848877 -0.01599426 10.93029785 -0.01895142 C13.58356688 -0.02099468 16.23600909 -0.01695109 18.88916016 -0.00292969 C22.28902571 0.01416273 25.68818083 0.00432043 29.08802032 -0.01364708 C32.33149215 -0.0270973 35.57487828 -0.01767874 38.81835938 -0.01025391 C40.04026978 -0.0163266 41.26218018 -0.02239929 42.52111816 -0.02865601 C44.21802795 -0.01447128 44.21802795 -0.01447128 45.94921875 0 C46.94610718 0.00238678 47.94299561 0.00477356 48.97009277 0.00723267 C51.47460938 0.38818359 51.47460938 0.38818359 54.47460938 3.38818359 C54.47460938 13.28818359 54.47460938 23.18818359 54.47460938 33.38818359 C33.68460938 33.38818359 12.89460937 33.38818359 -8.52539062 33.38818359 C-8.52539062 23.48818359 -8.52539062 13.58818359 -8.52539062 3.38818359 C-5.08144481 -0.05576222 -4.61195782 0.01104209 0 0 Z " fill="#FCFCFD" transform="translate(723.525390625,920.61181640625)"/>
<path d="M0 0 C2.31 0 4.62 0 7 0 C7 4.62 7 9.24 7 14 C9.25199219 13.95359375 11.50398438 13.9071875 13.82421875 13.859375 C16.01519519 13.82814359 18.20614646 13.80387648 20.3972168 13.78027344 C21.9152341 13.76020797 23.43317459 13.73294866 24.95092773 13.69824219 C27.13805122 13.64949607 29.32414952 13.62698195 31.51171875 13.609375 C32.82615967 13.58842773 34.14060059 13.56748047 35.49487305 13.54589844 C39.54750786 14.07093157 41.14662035 15.13830534 44 18 C46.19062416 22.38124831 45.26832802 28.25331344 45.29516602 33.12084961 C45.31235449 35.29410239 45.35623807 37.46582346 45.40039062 39.63867188 C45.41052026 41.0260305 45.41903552 42.41340204 45.42578125 43.80078125 C45.44036377 45.06059814 45.45494629 46.32041504 45.4699707 47.6184082 C44.91954573 51.5788946 43.78798822 53.19319813 41 56 C37.66783752 57.66608124 33.93526241 57.12017692 30.2734375 57.09765625 C29.50878174 57.09664917 28.74412598 57.09564209 27.95629883 57.09460449 C25.09585066 57.08936661 22.23542385 57.07540537 19.375 57.0625 C9.784375 57.0315625 9.784375 57.0315625 0 57 C0 38.19 0 19.38 0 0 Z " fill="#FBB44A" transform="translate(322,1001)"/>
<path d="M0 0 C0.70298721 -0.00043808 1.40597443 -0.00087616 2.13026428 -0.00132751 C4.44089069 0.00075317 6.75078053 0.02404902 9.0612793 0.04760742 C10.66838688 0.05320597 12.2754996 0.05747485 13.88261414 0.06047058 C18.10281629 0.07189907 22.32270638 0.10134883 26.54278564 0.13458252 C30.85294372 0.1653266 35.16315244 0.17898517 39.47338867 0.1940918 C47.92340132 0.22622066 56.37316081 0.27739259 64.82299805 0.34057617 C64.82299805 3.31057617 64.82299805 6.28057617 64.82299805 9.34057617 C63.96300201 9.34866302 63.10300598 9.35674988 62.21694946 9.36508179 C54.12356245 9.44293044 46.030344 9.53019128 37.93717384 9.62810326 C33.77610247 9.67811017 29.61505703 9.72443958 25.45385742 9.76245117 C21.44020938 9.79924879 17.42677604 9.8455932 13.413311 9.89863968 C11.87990448 9.91721313 10.34645189 9.93231013 8.81297684 9.94392014 C6.66977058 9.96073258 4.52705923 9.98975406 2.3840332 10.02172852 C1.16269684 10.03505219 -0.05863953 10.04837585 -1.31698608 10.06210327 C-4.30753762 10.04760961 -4.30753762 10.04760961 -6.17700195 12.34057617 C-6.47015175 14.93028102 -6.47015175 14.93028102 -6.40405273 17.98364258 C-6.40381104 19.18126221 -6.40356934 20.37888184 -6.40332031 21.61279297 C-6.39308838 22.87647705 -6.38285645 24.14016113 -6.37231445 25.44213867 C-6.37030029 26.5999585 -6.36828613 27.75777832 -6.36621094 28.95068359 C-6.35572159 33.28902123 -6.32779919 37.62730255 -6.30200195 41.96557617 C-6.26075195 51.65932617 -6.21950195 61.35307617 -6.17700195 71.34057617 C17.25299805 71.67057617 40.68299805 72.00057617 64.82299805 72.34057617 C64.82299805 75.31057617 64.82299805 78.28057617 64.82299805 81.34057617 C55.5217553 81.41012613 46.22060225 81.46341274 36.91915607 81.49601269 C32.59998188 81.51166006 28.28098577 81.53288127 23.96191406 81.56689453 C19.79275452 81.59952127 15.62376613 81.61743617 11.45448875 81.6252079 C9.86488336 81.63074547 8.27528719 81.64155909 6.68575478 81.65776634 C4.45696489 81.67958518 2.22887973 81.68254131 0 81.68115234 C-1.26796921 81.68781418 -2.53593842 81.69447601 -3.84233093 81.70133972 C-8.71332398 81.17436818 -11.05139718 79.47143113 -14.45715332 76.04978943 C-16.53883441 72.77059503 -16.68348098 70.85665041 -16.69458008 66.99316406 C-16.70718872 65.73157974 -16.71979736 64.46999542 -16.73278809 63.17018127 C-16.72562723 61.80119262 -16.71742299 60.43220908 -16.70825195 59.06323242 C-16.71094896 57.64985385 -16.71483313 56.2364771 -16.71984863 54.82310486 C-16.72573592 51.86496262 -16.71720769 48.90730455 -16.69848633 45.94921875 C-16.67571715 42.16841783 -16.68881031 38.38875409 -16.71277618 34.60799503 C-16.72727346 31.69017568 -16.72261007 28.77262312 -16.71226501 25.85479546 C-16.70960744 24.46141867 -16.71283327 23.06801721 -16.72218323 21.67466927 C-16.78617988 9.45599281 -16.78617988 9.45599281 -14.45629883 5.62744141 C-9.86913017 1.02504115 -6.48096272 -0.03405059 0 0 Z " fill="#00386D" transform="translate(341.177001953125,911.659423828125)"/>
<path d="M0 0 C1.19794189 -0.00315216 2.39588379 -0.00630432 3.63012695 -0.009552 C4.93425537 -0.00752777 6.23838379 -0.00550354 7.58203125 -0.00341797 C8.9234214 -0.00409107 10.26481144 -0.00506115 11.60620117 -0.00631714 C14.42074746 -0.00779382 17.23526207 -0.00564051 20.04980469 -0.00097656 C23.66493756 0.00472073 27.2799962 0.00144156 30.89512634 -0.00454903 C33.66598067 -0.00815544 36.43681727 -0.00701569 39.20767212 -0.00442123 C41.19142708 -0.0034258 43.17518272 -0.00647288 45.15893555 -0.009552 C46.35687744 -0.00639984 47.55481934 -0.00324768 48.7890625 0 C49.84971924 0.00079559 50.91037598 0.00159119 52.00317383 0.00241089 C54.39453125 0.12939453 54.39453125 0.12939453 55.39453125 1.12939453 C55.49456414 3.26292627 55.52534173 5.39976995 55.52734375 7.53564453 C55.52863281 8.83630859 55.52992188 10.13697266 55.53125 11.47705078 C55.52915527 12.15783691 55.52706055 12.83862305 55.52490234 13.54003906 C55.51955365 15.62067968 55.52484805 17.70110442 55.53125 19.78173828 C55.52996094 21.08240234 55.52867187 22.38306641 55.52734375 23.72314453 C55.52621582 24.92648437 55.52508789 26.12982422 55.52392578 27.36962891 C55.39453125 30.12939453 55.39453125 30.12939453 54.39453125 31.12939453 C52.52817337 31.22850014 50.65804931 31.25738714 48.7890625 31.25878906 C47.59112061 31.26194122 46.39317871 31.26509338 45.15893555 31.26834106 C43.85480713 31.26631683 42.55067871 31.2642926 41.20703125 31.26220703 C39.8656411 31.26288013 38.52425106 31.26385021 37.18286133 31.2651062 C34.36831504 31.26658289 31.55380043 31.26442957 28.73925781 31.25976562 C25.12412494 31.25406834 21.5090663 31.2573475 17.89393616 31.26333809 C15.12308183 31.2669445 12.35224523 31.26580475 9.58139038 31.2632103 C7.59763542 31.26221486 5.61387978 31.26526194 3.63012695 31.26834106 C2.43218506 31.2651889 1.23424316 31.26203674 0 31.25878906 C-1.06065674 31.25799347 -2.12131348 31.25719788 -3.21411133 31.25637817 C-5.60546875 31.12939453 -5.60546875 31.12939453 -6.60546875 30.12939453 C-6.70550164 27.9958628 -6.73627923 25.85901912 -6.73828125 23.72314453 C-6.73957031 22.42248047 -6.74085938 21.12181641 -6.7421875 19.78173828 C-6.74009277 19.10095215 -6.73799805 18.42016602 -6.73583984 17.71875 C-6.73049115 15.63810938 -6.73578555 13.55768464 -6.7421875 11.47705078 C-6.74089844 10.17638672 -6.73960937 8.87572266 -6.73828125 7.53564453 C-6.73715332 6.33230469 -6.73602539 5.12896484 -6.73486328 3.88916016 C-6.50650785 -0.98127337 -4.35127034 0.00326387 0 0 Z " fill="#FEFEFE" transform="translate(631.60546875,921.87060546875)"/>
<path d="M0 0 C3.88933516 -0.79857072 7.12300355 -0.93718744 11 0 C14.50562185 2.97285257 17.07782736 6.48430223 19.71435547 10.21191406 C21.44799048 12.62306918 23.30176502 14.92797371 25.15844727 17.24487305 C30.00449994 23.30264955 34.64705363 29.50600288 39.22265625 35.76953125 C40.80709739 38.07888425 40.80709739 38.07888425 43 39 C43.22816406 38.47148438 43.45632813 37.94296875 43.69140625 37.3984375 C45.43556975 34.20167217 47.66661491 31.45544125 49.9375 28.625 C50.92984504 27.37642728 51.92202777 26.12772554 52.9140625 24.87890625 C53.42356445 24.23969238 53.93306641 23.60047852 54.45800781 22.94189453 C56.45321665 20.42924553 58.42700758 17.90027594 60.39868164 15.36914062 C61.78257602 13.6007382 63.18132714 11.84494288 64.58203125 10.08984375 C65.98960224 8.29115448 67.36208594 6.46162401 68.63671875 4.56640625 C70 2.625 70 2.625 73 0 C76.74156336 -0.54716456 80.25094827 -0.42026736 84 0 C79.96419784 6.37231919 75.5059264 12.39229103 70.96582031 18.40771484 C66.77819873 23.95650624 62.62762993 29.5314321 58.5 35.125 C57.91283203 35.91825684 57.32566406 36.71151367 56.72070312 37.52880859 C55.88442383 38.66310303 55.88442383 38.66310303 55.03125 39.8203125 C54.54205078 40.48305176 54.05285156 41.14579102 53.54882812 41.82861328 C53.03771484 42.5451709 52.52660156 43.26172852 52 44 C51.29004883 44.92425781 50.58009766 45.84851563 49.84863281 46.80078125 C47.65662863 50.59423381 47.46264904 53.00973282 47.390625 57.3671875 C47.37408875 58.04677521 47.35755249 58.72636292 47.34051514 59.42654419 C47.29231287 61.57612388 47.27072872 63.72499781 47.25 65.875 C47.22181667 67.34118082 47.19188595 68.80732915 47.16015625 70.2734375 C47.08656499 73.84880629 47.03681974 77.42404173 47 81 C43.7 81 40.4 81 37 81 C37.03778564 80.15518066 37.07557129 79.31036133 37.11450195 78.43994141 C37.72822157 60.64812487 37.51795854 47.74821114 24.88330078 34.11425781 C21.53154965 30.35146746 18.68481053 26.21502326 15.75 22.125 C14.58891062 20.54468628 13.42493114 18.96649114 12.2578125 17.390625 C11.43265137 16.2759082 11.43265137 16.2759082 10.59082031 15.13867188 C9.1070892 13.14396891 7.61517069 11.15588917 6.1171875 9.171875 C5.69083008 8.60710449 5.26447266 8.04233398 4.82519531 7.46044922 C3.71183081 5.98970287 2.59436807 4.52206136 1.4765625 3.0546875 C0 1 0 1 0 0 Z " fill="#093E71" transform="translate(889,912)"/>
<path d="M0 0 C1.55288697 -0.01654596 3.10569821 -0.04381876 4.65820312 -0.08203125 C6.90184861 -0.13694648 9.14371145 -0.15869372 11.38793945 -0.17333984 C12.07769363 -0.19600922 12.76744781 -0.21867859 13.47810364 -0.24203491 C17.25174638 -0.2255862 18.93123471 0.27943792 21.97143555 2.57885742 C24.1530148 5.5233409 24.6285269 6.63016815 24.51293945 10.21337891 C24.50045166 11.01300049 24.48796387 11.81262207 24.47509766 12.63647461 C24.42957764 13.63509521 24.38405762 14.63371582 24.3371582 15.66259766 C24.2340332 18.85947266 24.1309082 22.05634766 24.0246582 25.35009766 C11.8146582 25.35009766 -0.3953418 25.35009766 -12.9753418 25.35009766 C-12.6453418 28.98009766 -12.3153418 32.61009766 -11.9753418 36.35009766 C6.3396582 36.84509766 6.3396582 36.84509766 25.0246582 37.35009766 C25.0246582 39.33009766 25.0246582 41.31009766 25.0246582 43.35009766 C19.56209546 43.47390914 14.10035333 43.56453592 8.63671875 43.62475586 C6.77915211 43.64986468 4.92168393 43.68395899 3.06445312 43.72729492 C0.39078462 43.7881089 -2.28157545 43.81634286 -4.95581055 43.83837891 C-6.196717 43.87708855 -6.196717 43.87708855 -7.46269226 43.9165802 C-11.87027559 43.91871305 -13.44334624 43.78757777 -16.9765625 40.88208008 C-17.63615967 40.04652588 -18.29575684 39.21097168 -18.9753418 38.35009766 C-19.3053418 38.02009766 -19.6353418 37.69009766 -19.9753418 37.35009766 C-20.24233755 33.00598461 -20.24665287 28.6560235 -20.27050781 24.3046875 C-20.28766516 22.12256234 -20.33152504 19.94197456 -20.37573242 17.76025391 C-20.38586423 16.36833797 -20.39437881 14.97640913 -20.40112305 13.58447266 C-20.41570557 12.31829102 -20.43028809 11.05210938 -20.4453125 9.74755859 C-19.8959632 5.77626255 -18.77204088 4.16274069 -15.9753418 1.35009766 C-11.48865832 -0.89324408 -4.98127773 0.03890391 0 0 Z " fill="#FBB349" transform="translate(952.975341796875,1014.64990234375)"/>
<path d="M0 0 C5.33852794 -0.0494731 10.67692214 -0.08575425 16.015625 -0.10986328 C17.83140386 -0.11991491 19.64716656 -0.13355828 21.46289062 -0.15087891 C24.07425935 -0.17516406 26.68541387 -0.18649148 29.296875 -0.1953125 C30.10743347 -0.20563507 30.91799194 -0.21595764 31.75311279 -0.22659302 C39.15405585 -0.22806313 39.15405585 -0.22806313 42 2 C44.82687793 5.6420447 44.25279178 10.09273397 44.1953125 14.484375 C44.1924826 15.29996887 44.18965271 16.11556274 44.18673706 16.95587158 C44.17556558 19.55406528 44.15046675 22.15191095 44.125 24.75 C44.11496627 26.51431793 44.10584111 28.27864128 44.09765625 30.04296875 C44.07563619 34.36211273 44.04112733 38.68099741 44 43 C38.53747422 43.14857278 33.07612961 43.25732017 27.61206055 43.32958984 C25.75443023 43.35972146 23.89694172 43.40063595 22.03979492 43.45263672 C19.36601782 43.52561645 16.69412421 43.5594907 14.01953125 43.5859375 C12.7786248 43.63238907 12.7786248 43.63238907 11.51264954 43.67977905 C10.34200203 43.68045883 10.34200203 43.68045883 9.14770508 43.68115234 C8.46597733 43.69447601 7.78424957 43.70779968 7.0818634 43.7215271 C5 43 5 43 0 37 C0 30.73 0 24.46 0 18 C12.54 18 25.08 18 38 18 C38.13220146 11.96347336 38.13220146 11.96347336 36 7 C33.33573315 6.83996512 30.69439572 6.74057111 28.02734375 6.68359375 C27.22970108 6.66281265 26.43205841 6.64203156 25.61024475 6.62062073 C23.05275389 6.55503842 20.4951572 6.49620033 17.9375 6.4375 C16.20767118 6.39432301 14.47785321 6.35070899 12.74804688 6.30664062 C8.4988074 6.19934828 4.2494611 6.09810574 0 6 C0 4.02 0 2.04 0 0 Z " fill="#FBB246" transform="translate(743,1015)"/>
<path d="M0 0 C0.73573242 -0.00336868 1.47146484 -0.00673737 2.22949219 -0.01020813 C3.77936825 -0.00991017 5.32930464 0.00525599 6.87890625 0.03442383 C9.24402634 0.07411849 11.60353709 0.05512335 13.96875 0.02929688 C15.4791883 0.03685668 16.98961421 0.04781087 18.5 0.0625 C19.2022168 0.0555159 19.90443359 0.0485318 20.62792969 0.04133606 C24.40210698 0.14923592 26.16746977 0.69914066 29.20385742 3.00146484 C31.38135319 5.93891469 31.8536522 7.04850043 31.73828125 10.625 C31.72579346 11.42462158 31.71330566 12.22424316 31.70043945 13.0480957 C31.65491943 14.04671631 31.60939941 15.04533691 31.5625 16.07421875 C31.459375 19.27109375 31.35625 22.46796875 31.25 25.76171875 C19.04 25.76171875 6.83 25.76171875 -5.75 25.76171875 C-5.42 29.39171875 -5.09 33.02171875 -4.75 36.76171875 C7.13 37.09171875 19.01 37.42171875 31.25 37.76171875 C31.25 39.74171875 31.25 41.72171875 31.25 43.76171875 C25.92982385 43.86078384 20.61018753 43.93327947 15.28930664 43.98144531 C13.4802922 44.00152928 11.67134243 44.02880216 9.86254883 44.06347656 C7.25846379 44.11213767 4.65523885 44.13471926 2.05078125 44.15234375 C0.84268547 44.18331146 0.84268547 44.18331146 -0.38981628 44.21490479 C-4.3796673 44.21649002 -6.28363368 44.05822361 -9.73754883 41.86230469 C-14.25103655 37.15114997 -13.04866544 30.85515573 -13.10009766 24.69580078 C-13.11661943 23.24674374 -13.14386032 21.79776694 -13.18212891 20.34912109 C-13.23720676 18.25185205 -13.25881703 16.15649087 -13.2734375 14.05859375 C-13.29325684 12.80401367 -13.31307617 11.54943359 -13.33349609 10.25683594 C-12.01383048 2.35209413 -7.53001675 -0.16387678 0 0 Z " fill="#FBB348" transform="translate(551.75,1014.23828125)"/>
<path d="M0 0 C1.30066406 -0.00128906 2.60132813 -0.00257813 3.94140625 -0.00390625 C4.96258545 -0.00076416 4.96258545 -0.00076416 6.00439453 0.00244141 C8.08503515 0.0077901 10.16545989 0.0024957 12.24609375 -0.00390625 C14.19708984 -0.00197266 14.19708984 -0.00197266 16.1875 0 C17.39083984 0.00112793 18.59417969 0.00225586 19.83398438 0.00341797 C22.59375 0.1328125 22.59375 0.1328125 23.59375 1.1328125 C23.69378289 3.26634424 23.72456048 5.40318792 23.7265625 7.5390625 C23.72785156 8.83972656 23.72914063 10.14039063 23.73046875 11.48046875 C23.72732666 12.50164795 23.72732666 12.50164795 23.72412109 13.54345703 C23.7187724 15.62409765 23.7240668 17.70452239 23.73046875 19.78515625 C23.72917969 21.08582031 23.72789062 22.38648438 23.7265625 23.7265625 C23.72543457 24.92990234 23.72430664 26.13324219 23.72314453 27.37304688 C23.59375 30.1328125 23.59375 30.1328125 22.59375 31.1328125 C20.46021826 31.23284539 18.32337458 31.26362298 16.1875 31.265625 C14.88683594 31.26691406 13.58617187 31.26820312 12.24609375 31.26953125 C11.56530762 31.26743652 10.88452148 31.2653418 10.18310547 31.26318359 C8.10246485 31.2578349 6.02204011 31.2631293 3.94140625 31.26953125 C1.99041016 31.26759766 1.99041016 31.26759766 0 31.265625 C-1.20333984 31.26449707 -2.40667969 31.26336914 -3.64648438 31.26220703 C-6.40625 31.1328125 -6.40625 31.1328125 -7.40625 30.1328125 C-7.50628289 27.99928076 -7.53706048 25.86243708 -7.5390625 23.7265625 C-7.54035156 22.42589844 -7.54164063 21.12523437 -7.54296875 19.78515625 C-7.54087402 19.10437012 -7.5387793 18.42358398 -7.53662109 17.72216797 C-7.5312724 15.64152735 -7.5365668 13.56110261 -7.54296875 11.48046875 C-7.54167969 10.17980469 -7.54039062 8.87914062 -7.5390625 7.5390625 C-7.53793457 6.33572266 -7.53680664 5.13238281 -7.53564453 3.89257812 C-7.2948379 -1.24341842 -4.5284013 0.00424462 0 0 Z " fill="#FEFEFC" transform="translate(336.40625,1020.8671875)"/>
<path d="M0 0 C1.30066406 -0.00128906 2.60132813 -0.00257813 3.94140625 -0.00390625 C4.96258545 -0.00076416 4.96258545 -0.00076416 6.00439453 0.00244141 C8.08503515 0.0077901 10.16545989 0.0024957 12.24609375 -0.00390625 C14.19708984 -0.00197266 14.19708984 -0.00197266 16.1875 0 C17.39083984 0.00112793 18.59417969 0.00225586 19.83398438 0.00341797 C22.59375 0.1328125 22.59375 0.1328125 23.59375 1.1328125 C23.69378289 3.26634424 23.72456048 5.40318792 23.7265625 7.5390625 C23.72785156 8.83972656 23.72914063 10.14039063 23.73046875 11.48046875 C23.72732666 12.50164795 23.72732666 12.50164795 23.72412109 13.54345703 C23.7187724 15.62409765 23.7240668 17.70452239 23.73046875 19.78515625 C23.72917969 21.08582031 23.72789062 22.38648438 23.7265625 23.7265625 C23.72543457 24.92990234 23.72430664 26.13324219 23.72314453 27.37304688 C23.59375 30.1328125 23.59375 30.1328125 22.59375 31.1328125 C20.54492803 31.23277344 18.49266431 31.26362196 16.44140625 31.265625 C15.19037109 31.26691406 13.93933594 31.26820312 12.65039062 31.26953125 C11.33232422 31.26566406 10.01425781 31.26179688 8.65625 31.2578125 C6.68495117 31.26361328 6.68495117 31.26361328 4.67382812 31.26953125 C3.42150391 31.26824219 2.16917969 31.26695313 0.87890625 31.265625 C-0.27730225 31.26449707 -1.43351074 31.26336914 -2.62475586 31.26220703 C-5.40625 31.1328125 -5.40625 31.1328125 -7.40625 30.1328125 C-7.43090746 26.0210869 -7.44908959 21.90938972 -7.46118164 17.79760742 C-7.4662208 16.39786022 -7.47305216 14.9981183 -7.48168945 13.59838867 C-7.4937732 11.59035473 -7.49894807 9.58228293 -7.50390625 7.57421875 C-7.50914307 6.36451416 -7.51437988 5.15480957 -7.51977539 3.90844727 C-7.30892834 -1.24664988 -4.53951428 0.00425503 0 0 Z " fill="#FEFEFC" transform="translate(807.40625,1020.8671875)"/>
<path d="M0 0 C0.73573242 -0.00478363 1.47146484 -0.00956726 2.22949219 -0.01449585 C3.77931873 -0.0178863 5.32921761 -0.00874342 6.87890625 0.01220703 C9.24381786 0.03899248 11.60398502 0.01243833 13.96875 -0.01953125 C15.47917708 -0.01622699 16.98960123 -0.0098204 18.5 0 C19.5533252 -0.01518173 19.5533252 -0.01518173 20.62792969 -0.03067017 C24.49934503 0.06119612 26.15177848 0.5856891 29.21484375 3.02978516 C31.25 5.6640625 31.25 5.6640625 31.5625 8.4765625 C31.459375 9.1984375 31.35625 9.9203125 31.25 10.6640625 C29.27 10.6640625 27.29 10.6640625 25.25 10.6640625 C25.25 9.6740625 25.25 8.6840625 25.25 7.6640625 C15.35 7.6640625 5.45 7.6640625 -4.75 7.6640625 C-5.08 11.2940625 -5.41 14.9240625 -5.75 18.6640625 C-4.3885083 18.62478638 -4.3885083 18.62478638 -2.99951172 18.5847168 C0.3888351 18.49917436 3.77602446 18.43666298 7.16503906 18.3894043 C8.62778907 18.36435721 10.09041512 18.33030858 11.55273438 18.28686523 C13.66307219 18.22576894 15.77174752 18.19775815 17.8828125 18.17578125 C19.78377686 18.13650513 19.78377686 18.13650513 21.72314453 18.09643555 C26.41135545 18.85097593 27.9739003 20.27264855 31.25 23.6640625 C32.01171875 27.00390625 32.01171875 27.00390625 31.9375 30.6015625 C31.94330078 32.37853516 31.94330078 32.37853516 31.94921875 34.19140625 C31.11463786 38.33633593 29.5048705 41.01938633 26.25 43.6640625 C23.44436197 44.25798227 21.50856675 44.46615604 18.71875 44.390625 C18.00521362 44.39162201 17.29167725 44.39261902 16.55651855 44.39364624 C15.05367851 44.38898248 13.55082031 44.36962799 12.04833984 44.33642578 C9.75605735 44.28918733 7.46842767 44.29531303 5.17578125 44.30859375 C3.71090995 44.2974392 2.24605812 44.28321874 0.78125 44.265625 C-0.23926453 44.26835922 -0.23926453 44.26835922 -1.28039551 44.27114868 C-5.98974648 44.13177651 -8.48927712 43.05873527 -11.75 39.6640625 C-12.5625 36.4140625 -12.5625 36.4140625 -12.75 33.6640625 C-10.44 33.6640625 -8.13 33.6640625 -5.75 33.6640625 C-5.42 34.6540625 -5.09 35.6440625 -4.75 36.6640625 C-0.78069011 36.68872131 3.18859034 36.70690273 7.15795898 36.71899414 C8.50920386 36.72403307 9.86044326 36.73086427 11.21166992 36.73950195 C13.15020434 36.75158669 15.088778 36.75676078 17.02734375 36.76171875 C18.19515381 36.76695557 19.36296387 36.77219238 20.56616211 36.77758789 C23.16891551 36.97067745 23.16891551 36.97067745 24.25 35.6640625 C24.32179964 34.14478212 24.33392007 32.62238768 24.3125 31.1015625 C24.30347656 30.27527344 24.29445313 29.44898438 24.28515625 28.59765625 C24.27355469 27.95957031 24.26195312 27.32148437 24.25 26.6640625 C23.36739502 26.64947998 22.48479004 26.63489746 21.57543945 26.61987305 C18.28561357 26.55864183 14.9966007 26.4844592 11.70727539 26.40161133 C10.28648798 26.36845693 8.86557187 26.34039558 7.44458008 26.31762695 C5.3960918 26.28390403 3.3487728 26.23158505 1.30078125 26.17578125 C0.07012939 26.14959717 -1.16052246 26.12341309 -2.4284668 26.09643555 C-5.97719608 25.63448777 -7.89261711 24.77351792 -10.75 22.6640625 C-13.10209401 19.39686808 -13.10985477 16.17733443 -13.1875 12.2265625 C-13.22746094 11.11410156 -13.26742187 10.00164062 -13.30859375 8.85546875 C-12.01458632 1.4624333 -6.74761822 -0.09725442 0 0 Z " fill="#FBB349" transform="translate(653.75,1014.3359375)"/>
<path d="M0 0 C0.73573242 -0.00336868 1.47146484 -0.00673737 2.22949219 -0.01020813 C3.77936825 -0.00991017 5.32930464 0.00525599 6.87890625 0.03442383 C9.24402634 0.07411849 11.60353709 0.05512335 13.96875 0.02929688 C15.4791883 0.03685668 16.98961421 0.04781087 18.5 0.0625 C19.2022168 0.0555159 19.90443359 0.0485318 20.62792969 0.04133606 C24.49415511 0.15186748 26.15713697 0.68755221 29.21484375 3.12963867 C31.25 5.76171875 31.25 5.76171875 31.5625 8.57421875 C31.459375 9.29609375 31.35625 10.01796875 31.25 10.76171875 C29.27 10.76171875 27.29 10.76171875 25.25 10.76171875 C24.755 9.27671875 24.755 9.27671875 24.25 7.76171875 C14.68 7.76171875 5.11 7.76171875 -4.75 7.76171875 C-4.75 11.06171875 -4.75 14.36171875 -4.75 17.76171875 C-3.87263184 17.76582764 -2.99526367 17.76993652 -2.09130859 17.77416992 C1.18586877 17.80125224 4.46120459 17.85043773 7.73779297 17.91430664 C9.15173937 17.93740401 10.56585579 17.95186294 11.97998047 17.95727539 C25.23191204 18.01797839 25.23191204 18.01797839 29.171875 20.83984375 C31.82270063 24.56694444 31.99239953 26.7772445 31.875 31.32421875 C31.86726562 32.62488281 31.85953125 33.92554688 31.8515625 35.265625 C31.17574357 39.19327397 30.36371262 40.37687144 27.25 42.76171875 C22.76929752 45.00206999 16.68447387 44.03029225 11.7019043 44.05688477 C9.45624427 44.07407526 7.21206567 44.11795875 4.96679688 44.16210938 C3.53386497 44.17223876 2.10092057 44.1807541 0.66796875 44.1875 C-0.63374268 44.20208252 -1.9354541 44.21666504 -3.27661133 44.23168945 C-7.31786691 43.68488289 -8.95009832 42.6814899 -11.75 39.76171875 C-12.5625 36.51171875 -12.5625 36.51171875 -12.75 33.76171875 C-10.44 33.76171875 -8.13 33.76171875 -5.75 33.76171875 C-5.42 34.75171875 -5.09 35.74171875 -4.75 36.76171875 C-0.78069011 36.78637756 3.18859034 36.80455898 7.15795898 36.81665039 C8.50920386 36.82168932 9.86044326 36.82852052 11.21166992 36.8371582 C13.15020434 36.84924294 15.088778 36.85441703 17.02734375 36.859375 C18.19515381 36.86461182 19.36296387 36.86984863 20.56616211 36.87524414 C23.16891551 37.0683337 23.16891551 37.0683337 24.25 35.76171875 C24.32179964 34.24243837 24.33392007 32.72004393 24.3125 31.19921875 C24.30347656 30.37292969 24.29445313 29.54664063 24.28515625 28.6953125 C24.27355469 28.05722656 24.26195312 27.41914062 24.25 26.76171875 C23.36739502 26.74713623 22.48479004 26.73255371 21.57543945 26.7175293 C18.28561357 26.65629808 14.9966007 26.58211545 11.70727539 26.49926758 C10.28648798 26.46611318 8.86557187 26.43805183 7.44458008 26.4152832 C5.3960918 26.38156028 3.3487728 26.3292413 1.30078125 26.2734375 C0.07012939 26.24725342 -1.16052246 26.22106934 -2.4284668 26.1940918 C-5.9777051 25.73207776 -7.89340563 24.87352556 -10.75 22.76171875 C-12.96814907 19.61990274 -13.10555954 16.67526015 -13.1875 12.88671875 C-13.22746094 11.87867188 -13.26742187 10.870625 -13.30859375 9.83203125 C-11.90705097 2.12844646 -7.27848422 -0.15840265 0 0 Z " fill="#FBB349" transform="translate(602.75,1014.23828125)"/>
<path d="M0 0 C0.73573242 -0.00478363 1.47146484 -0.00956726 2.22949219 -0.01449585 C3.77931873 -0.0178863 5.32921761 -0.00874342 6.87890625 0.01220703 C9.24381786 0.03899248 11.60398502 0.01243833 13.96875 -0.01953125 C15.47917708 -0.01622699 16.98960123 -0.0098204 18.5 0 C19.5533252 -0.01518173 19.5533252 -0.01518173 20.62792969 -0.03067017 C24.49934503 0.06119612 26.15177848 0.5856891 29.21484375 3.02978516 C31.25 5.6640625 31.25 5.6640625 31.5625 8.4765625 C31.459375 9.1984375 31.35625 9.9203125 31.25 10.6640625 C28.375 10.8515625 28.375 10.8515625 25.25 10.6640625 C24.59 9.6740625 23.93 8.6840625 23.25 7.6640625 C20.35663789 7.22961234 20.35663789 7.22961234 16.96484375 7.3359375 C15.71251953 7.34109375 14.46019531 7.34625 13.16992188 7.3515625 C11.85572266 7.3721875 10.54152344 7.3928125 9.1875 7.4140625 C7.86943359 7.41921875 6.55136719 7.424375 5.19335938 7.4296875 C-0.66002015 6.90843386 -0.66002015 6.90843386 -5.75 8.6640625 C-5.82179964 10.18334288 -5.83392007 11.70573732 -5.8125 13.2265625 C-5.80347656 14.05285156 -5.79445313 14.87914062 -5.78515625 15.73046875 C-5.77355469 16.36855469 -5.76195312 17.00664063 -5.75 17.6640625 C-4.84233887 17.66817139 -3.93467773 17.67228027 -2.99951172 17.67651367 C0.38945626 17.70358903 3.77664113 17.75276828 7.16503906 17.81665039 C8.62749182 17.83975365 10.09010915 17.85420808 11.55273438 17.85961914 C13.66379424 17.86896648 15.77229366 17.91007071 17.8828125 17.95703125 C19.78377686 17.98059692 19.78377686 17.98059692 21.72314453 18.00463867 C26.35975474 18.87155575 27.98503471 20.30142862 31.25 23.6640625 C32.01171875 27.00390625 32.01171875 27.00390625 31.9375 30.6015625 C31.94330078 32.37853516 31.94330078 32.37853516 31.94921875 34.19140625 C31.11463786 38.33633593 29.5048705 41.01938633 26.25 43.6640625 C23.44436197 44.25798227 21.50856675 44.46615604 18.71875 44.390625 C18.00521362 44.39162201 17.29167725 44.39261902 16.55651855 44.39364624 C15.05367851 44.38898248 13.55082031 44.36962799 12.04833984 44.33642578 C9.75605735 44.28918733 7.46842767 44.29531303 5.17578125 44.30859375 C3.71090995 44.2974392 2.24605812 44.28321874 0.78125 44.265625 C-0.23926453 44.26835922 -0.23926453 44.26835922 -1.28039551 44.27114868 C-5.98974648 44.13177651 -8.48927712 43.05873527 -11.75 39.6640625 C-12.5625 36.4140625 -12.5625 36.4140625 -12.75 33.6640625 C-9.875 33.4765625 -9.875 33.4765625 -6.75 33.6640625 C-6.09 34.6540625 -5.43 35.6440625 -4.75 36.6640625 C-1.85663789 37.09851266 -1.85663789 37.09851266 1.53515625 36.9921875 C2.78748047 36.98703125 4.03980469 36.981875 5.33007812 36.9765625 C6.64427734 36.9559375 7.95847656 36.9353125 9.3125 36.9140625 C10.63056641 36.90890625 11.94863281 36.90375 13.30664062 36.8984375 C19.16002015 37.41969114 19.16002015 37.41969114 24.25 35.6640625 C24.32179964 34.14478212 24.33392007 32.62238768 24.3125 31.1015625 C24.30347656 30.27527344 24.29445313 29.44898438 24.28515625 28.59765625 C24.27355469 27.95957031 24.26195312 27.32148437 24.25 26.6640625 C23.36739502 26.64947998 22.48479004 26.63489746 21.57543945 26.61987305 C18.28561357 26.55864183 14.9966007 26.4844592 11.70727539 26.40161133 C10.28648798 26.36845693 8.86557187 26.34039558 7.44458008 26.31762695 C5.3960918 26.28390403 3.3487728 26.23158505 1.30078125 26.17578125 C0.07012939 26.14959717 -1.16052246 26.12341309 -2.4284668 26.09643555 C-5.97719608 25.63448777 -7.89261711 24.77351792 -10.75 22.6640625 C-13.10209401 19.39686808 -13.10985477 16.17733443 -13.1875 12.2265625 C-13.22746094 11.11410156 -13.26742188 10.00164062 -13.30859375 8.85546875 C-12.01458632 1.4624333 -6.74761822 -0.09725442 0 0 Z " fill="#FBB348" transform="translate(434.75,1014.3359375)"/>
<path d="M0 0 C6.166875 -0.0825 12.33375 -0.165 18.6875 -0.25 C20.62584717 -0.28641602 22.56419434 -0.32283203 24.5612793 -0.36035156 C26.10724786 -0.37204011 27.65322878 -0.38223155 29.19921875 -0.390625 C29.9941272 -0.41108887 30.78903564 -0.43155273 31.60803223 -0.45263672 C35.61118235 -0.45514692 37.52314366 -0.30317417 40.98754883 1.89941406 C44.66332767 5.73617266 44.1302885 9.2373356 44.09765625 14.2890625 C44.0962413 15.10748627 44.09482635 15.92591003 44.09336853 16.76913452 C44.0877629 19.38779325 44.07520948 22.00636704 44.0625 24.625 C44.05748572 26.39843627 44.05292269 28.17187387 44.04882812 29.9453125 C44.03779164 34.29690782 44.02052325 38.6484395 44 43 C41.69 43 39.38 43 37 43 C36.67 31.12 36.34 19.24 36 7 C26.43 7 16.86 7 7 7 C6.67 18.88 6.34 30.76 6 43 C4.02 43 2.04 43 0 43 C0 28.81 0 14.62 0 0 Z " fill="#FBB347" transform="translate(488,1015)"/>
<path d="M0 0 C9.4978125 -0.1546875 9.4978125 -0.1546875 19.1875 -0.3125 C21.1780542 -0.35802002 23.1686084 -0.40354004 25.21948242 -0.45043945 C26.80646074 -0.4650496 28.39345786 -0.47778903 29.98046875 -0.48828125 C31.20521912 -0.526651 31.20521912 -0.526651 32.45471191 -0.5657959 C36.55262812 -0.56892551 38.52467721 -0.31035242 42.03320312 1.98046875 C44.69074915 6.06047486 44.64096684 9.03559058 44.48828125 13.80078125 C44.48120651 14.63715622 44.47413177 15.47353119 44.46684265 16.33525085 C44.43894985 18.99526052 44.37622481 21.65313139 44.3125 24.3125 C44.28741034 26.12041221 44.26459833 27.92835757 44.24414062 29.73632812 C44.18914042 34.15837073 44.10290643 38.57882331 44 43 C42.02 43 40.04 43 38 43 C37.97494385 41.94498291 37.9498877 40.88996582 37.92407227 39.80297852 C37.83015891 35.90229372 37.72989966 32.00179375 37.62768555 28.10131836 C37.58427561 26.41060701 37.54260511 24.71985009 37.50268555 23.02905273 C37.44512906 20.60386394 37.38139351 18.17890585 37.31640625 15.75390625 C37.29969376 14.99348526 37.28298126 14.23306427 37.26576233 13.44960022 C37.47908732 9.92917969 37.47908732 9.92917969 36 7 C33.9394469 6.90006468 31.8754741 6.86919094 29.8125 6.8671875 C28.55695312 6.86589844 27.30140625 6.86460937 26.0078125 6.86328125 C25.02216309 6.86642334 25.02216309 6.86642334 24.01660156 6.86962891 C22.00838665 6.87497766 20.00039541 6.86968309 17.9921875 6.86328125 C16.73664062 6.86457031 15.48109375 6.86585938 14.1875 6.8671875 C13.02605469 6.86831543 11.86460937 6.86944336 10.66796875 6.87060547 C8.07936716 6.69662526 8.07936716 6.69662526 7 8 C6.84003834 10.59153107 6.74061303 13.1595202 6.68359375 15.75390625 C6.66281265 16.52935287 6.64203156 17.3047995 6.62062073 18.10374451 C6.55504198 20.58990308 6.49620201 23.07617045 6.4375 25.5625 C6.39432267 27.24415204 6.35070864 28.92579294 6.30664062 30.60742188 C6.19935221 34.73816871 6.09810868 38.86902536 6 43 C4.02 43 2.04 43 0 43 C0 28.81 0 14.62 0 0 Z " fill="#FBB040" transform="translate(882,1015)"/>
<path d="M0 0 C1.98 0 3.96 0 6 0 C6.02505615 1.05501709 6.0501123 2.11003418 6.07592773 3.19702148 C6.16984109 7.09770628 6.27010034 10.99820625 6.37231445 14.89868164 C6.41572439 16.58939299 6.45739489 18.28014991 6.49731445 19.97094727 C6.55487094 22.39613606 6.61860649 24.82109415 6.68359375 27.24609375 C6.70030624 28.00651474 6.71701874 28.76693573 6.73423767 29.55039978 C6.52091268 33.07082031 6.52091268 33.07082031 8 36 C10.0605531 36.09993532 12.1245259 36.13080906 14.1875 36.1328125 C15.44304687 36.13410156 16.69859375 36.13539062 17.9921875 36.13671875 C18.97783691 36.13357666 18.97783691 36.13357666 19.98339844 36.13037109 C21.99161335 36.12502234 23.99960459 36.13031691 26.0078125 36.13671875 C27.26335937 36.13542969 28.51890625 36.13414063 29.8125 36.1328125 C30.97394531 36.13168457 32.13539063 36.13055664 33.33203125 36.12939453 C35.92063284 36.30337474 35.92063284 36.30337474 37 35 C37.15996166 32.40846893 37.25938697 29.8404798 37.31640625 27.24609375 C37.33718735 26.47064713 37.35796844 25.6952005 37.37937927 24.89625549 C37.44495802 22.41009692 37.50379799 19.92382955 37.5625 17.4375 C37.60567733 15.75584796 37.64929136 14.07420706 37.69335938 12.39257812 C37.80064779 8.26183129 37.90189132 4.13097464 38 0 C39.98 0 41.96 0 44 0 C44.1485957 5.32010722 44.25733006 10.63900079 44.32958984 15.96069336 C44.35971777 17.76982672 44.40062963 19.57881454 44.45263672 21.38745117 C44.52563407 23.99173897 44.55949398 26.59409277 44.5859375 29.19921875 C44.61690521 30.00461594 44.64787292 30.81001312 44.67977905 31.63981628 C44.68239803 36.03425205 44.39298508 37.53812541 41.44018555 41.00854492 C37.41619445 43.33795344 34.998936 43.64427936 30.37109375 43.6640625 C29.30291161 43.67123795 29.30291161 43.67123795 28.21315002 43.67855835 C26.71637751 43.68194293 25.21952961 43.67284153 23.72290039 43.65185547 C21.43923643 43.6250204 19.16046749 43.65166336 16.87695312 43.68359375 C15.41665589 43.68029016 13.95636169 43.67388495 12.49609375 43.6640625 C11.17794678 43.65842285 9.8597998 43.6527832 8.50170898 43.64697266 C5 43 5 43 2.06201172 41.00854492 C-0.72639715 36.94016196 -0.64263141 34.01635928 -0.48828125 29.19921875 C-0.48120651 28.36284378 -0.47413177 27.52646881 -0.46684265 26.66474915 C-0.43894985 24.00473948 -0.37622481 21.34686861 -0.3125 18.6875 C-0.28741034 16.87958779 -0.26459833 15.07164243 -0.24414062 13.26367188 C-0.18914042 8.84162927 -0.10290643 4.42117669 0 0 Z " fill="#FBB041" transform="translate(372,1015)"/>
<path d="M0 0 C2.31 0 4.62 0 7 0 C7 4.62 7 9.24 7 14 C12.94 14 18.88 14 25 14 C25 15.98 25 17.96 25 20 C19.06 20 13.12 20 7 20 C7.33 30.23 7.66 40.46 8 51 C13.61 51 19.22 51 25 51 C25 52.98 25 54.96 25 57 C21.93601549 57.13530844 18.87802874 57.2342407 15.8125 57.3125 C14.94818359 57.35439453 14.08386719 57.39628906 13.19335938 57.43945312 C8.65251662 57.52644245 6.66366813 57.50731098 2.94921875 54.66796875 C0.30937223 51.05471189 -0.12471696 48.51489774 -0.11352539 44.16137695 C-0.11344986 43.1805867 -0.11337433 42.19979645 -0.11329651 41.18928528 C-0.10813522 40.13295395 -0.10297394 39.07662262 -0.09765625 37.98828125 C-0.0962413 36.90491989 -0.09482635 35.82155853 -0.09336853 34.70536804 C-0.08776559 31.24105075 -0.07521258 27.7767978 -0.0625 24.3125 C-0.05748538 21.96549572 -0.05292241 19.61849044 -0.04882812 17.27148438 C-0.03779521 11.51430092 -0.0210542 5.75715506 0 0 Z " fill="#FBB348" transform="translate(712,1001)"/>
<path d="M0 0 C2.31 0 4.62 0 7 0 C7.33 16.5 7.66 33 8 50 C10.64 50.33 13.28 50.66 16 51 C16 52.98 16 54.96 16 57 C7.0247473 57.62739631 7.0247473 57.62739631 2.9375 55.125 C0.05511906 51.96367897 -0.12382663 50.2736122 -0.11352539 46.09130859 C-0.11344986 45.07040131 -0.11337433 44.04949402 -0.11329651 42.99765015 C-0.10813522 41.89240997 -0.10297394 40.7871698 -0.09765625 39.6484375 C-0.0962413 38.5192691 -0.09482635 37.39010071 -0.09336853 36.22671509 C-0.08775744 32.60945012 -0.07520303 28.99224636 -0.0625 25.375 C-0.05748643 22.92708423 -0.05292328 20.47916748 -0.04882812 18.03125 C-0.0377844 12.02081234 -0.02103544 6.01041054 0 0 Z " fill="#FBB44B" transform="translate(845,1001)"/>
<path d="M0 0 C1.30066406 -0.00128906 2.60132813 -0.00257813 3.94140625 -0.00390625 C4.96258545 -0.00076416 4.96258545 -0.00076416 6.00439453 0.00244141 C8.08503515 0.0077901 10.16545989 0.0024957 12.24609375 -0.00390625 C14.19708984 -0.00197266 14.19708984 -0.00197266 16.1875 0 C17.39083984 0.00112793 18.59417969 0.00225586 19.83398438 0.00341797 C22.59375 0.1328125 22.59375 0.1328125 23.59375 1.1328125 C23.59375 4.7628125 23.59375 8.3928125 23.59375 12.1328125 C13.36375 12.1328125 3.13375 12.1328125 -7.40625 12.1328125 C-7.40625 0.00694212 -7.40625 0.00694212 0 0 Z " fill="#FEFEFE" transform="translate(947.40625,1020.8671875)"/>
<path d="M0 0 C10.23 0 20.46 0 31 0 C31 3.96 31 7.92 31 12 C26.90661348 12.04939115 22.81334202 12.08571501 18.71972656 12.10986328 C17.32679219 12.11992877 15.93387898 12.13358234 14.54101562 12.15087891 C12.5404564 12.1751022 10.53974385 12.18540814 8.5390625 12.1953125 C7.33459473 12.20578613 6.13012695 12.21625977 4.88916016 12.22705078 C2 12 2 12 0 10 C0 6.7 0 3.4 0 0 Z " fill="#FEFCF9" transform="translate(749,1040)"/>
<path d="M0 0 C1.87655273 -0.00193359 1.87655273 -0.00193359 3.79101562 -0.00390625 C5.10908203 -0.00003906 6.42714844 0.00382813 7.78515625 0.0078125 C9.75645508 0.00201172 9.75645508 0.00201172 11.76757812 -0.00390625 C13.01990234 -0.00261719 14.27222656 -0.00132812 15.5625 0 C17.29681274 0.00169189 17.29681274 0.00169189 19.06616211 0.00341797 C21.84765625 0.1328125 21.84765625 0.1328125 23.84765625 1.1328125 C23.84765625 4.7628125 23.84765625 8.3928125 23.84765625 12.1328125 C13.61765625 12.1328125 3.38765625 12.1328125 -7.15234375 12.1328125 C-7.15234375 0.00698422 -7.15234375 0.00698422 0 0 Z " fill="#FEFEFD" transform="translate(553.15234375,1020.8671875)"/>
<path d="M0 0 C2.31 0 4.62 0 7 0 C7 14.19 7 28.38 7 43 C4.69 43 2.38 43 0 43 C0 28.81 0 14.62 0 0 Z " fill="#FBB854" transform="translate(867,1015)"/>
<path d="M0 0 C2.31 0 4.62 0 7 0 C7 14.19 7 28.38 7 43 C4.69 43 2.38 43 0 43 C0 28.81 0 14.62 0 0 Z " fill="#FBB854" transform="translate(473,1015)"/>
<path d="M0 0 C2.31 0 4.62 0 7 0 C7 1.98 7 3.96 7 6 C4.69 6 2.38 6 0 6 C0 4.02 0 2.04 0 0 Z " fill="#FBB854" transform="translate(867,1001)"/>
<path d="M0 0 C2.31 0 4.62 0 7 0 C7 1.98 7 3.96 7 6 C4.69 6 2.38 6 0 6 C0 4.02 0 2.04 0 0 Z " fill="#FBB854" transform="translate(473,1001)"/>
</svg>
